<svg width="419" height="759" viewBox="0 0 419 759" fill="none" xmlns="http://www.w3.org/2000/svg">
<path d="M387.025 159.238H386.975C369.75 159.238 355.775 173.187 355.725 190.412L355 545.363C355.2 548.213 355.325 551.538 355.325 554.888C355.325 632.838 292.125 696.037 214.175 696.037C212.4 696.037 210.625 696.013 208.875 695.938H209.125H208.775C207.2 696.013 205.325 696.037 203.45 696.037C125.525 696.037 62.375 632.862 62.375 554.962C62.375 551.812 62.475 548.712 62.675 545.612L62.65 546.037V158.137C62.55 156.562 62.5 154.737 62.5 152.887C62.5 101.537 104.125 59.9125 155.475 59.9125C157.325 59.9125 159.15 59.9625 160.95 60.0625H160.7C162.275 59.9625 164.1 59.9125 165.95 59.9125C217.275 59.9125 258.875 101.513 258.875 152.838C258.875 154.663 258.825 156.462 258.725 158.262V158.012L257.3 514.812C257.35 515.938 257.4 517.238 257.4 518.562C257.4 536.538 250.925 553.012 240.175 565.737L240.275 565.638C231.975 573.963 220.575 579.237 207.95 579.562H207.9C195.15 579.412 183.75 573.862 175.8 565.112L175.775 565.062C165.6 552.562 159.425 536.438 159.425 518.888C159.425 517.063 159.5 515.263 159.625 513.463L159.6 513.713V255.113C159.6 237.863 145.6 223.863 128.35 223.863C111.1 223.863 97.1 237.863 97.1 255.113V513.413C96.65 517.238 96.4 521.662 96.4 526.162C96.4 588.437 145.5 639.263 207.1 642.013H207.35L208.3 642.062C208.375 642.062 208.45 642.062 208.525 642.062C238.875 642.062 266.225 629.263 285.475 608.763L285.525 608.712C306.825 585.287 319.875 553.987 319.875 519.688C319.875 518.138 319.85 516.587 319.8 515.037V515.263L321.225 158.137C321.225 -52.7125 0.125003 -52.7125 0.125003 158.137V546.088C0.0500029 548.163 0 550.588 0 553.013C0 613.013 25.375 667.112 66 705.112L66.125 705.213C103.25 738.263 152.425 758.438 206.325 758.438C207.175 758.438 208.025 758.437 208.875 758.412H208.75H209.225C209.85 758.412 210.575 758.412 211.3 758.412C265.5 758.412 314.95 737.988 352.35 704.413L352.15 704.588C392.5 666.513 417.625 612.687 417.625 552.987C417.625 550.287 417.575 547.612 417.475 544.938V545.312L418.2 190.512C418.2 190.512 418.2 190.462 418.2 190.412C418.2 173.162 404.225 159.188 387 159.188L387.025 159.238Z" fill="#0050CF"/>
</svg>
