<svg width="400" height="400" viewBox="0 0 400 400" fill="none" xmlns="http://www.w3.org/2000/svg">
<path d="M281.668 205C289.952 205 296.668 198.284 296.668 190C296.668 181.716 289.952 175 281.668 175C273.384 175 266.668 181.716 266.668 190C266.668 198.284 273.384 205 281.668 205Z" fill="white"/>
<path d="M190 205C198.284 205 205 198.284 205 190C205 181.716 198.284 175 190 175C181.716 175 175 181.716 175 190C175 198.284 181.716 205 190 205Z" fill="white"/>
<path d="M98.332 205C106.616 205 113.332 198.284 113.332 190C113.332 181.716 106.616 175 98.332 175C90.0478 175 83.332 181.716 83.332 190C83.332 198.284 90.0478 205 98.332 205Z" fill="white"/>
</svg>
