<svg width="14" height="12" viewBox="0 0 14 12" fill="none" xmlns="http://www.w3.org/2000/svg">
<path fill-rule="evenodd" clip-rule="evenodd" d="M13.7063 2.65452C13.6462 3.94581 12.7289 5.71366 10.9536 7.95873C9.1176 10.3024 7.56508 11.4748 6.29471 11.4748C5.50765 11.4748 4.84142 10.7614 4.29736 9.33372L3.2079 5.40653C2.80425 3.97956 2.37089 3.26473 1.90716 3.26473C1.80591 3.26473 1.45288 3.47398 0.847398 3.88979L0.212891 3.08653C0.879124 2.51074 1.53591 1.93564 2.18256 1.35986C3.07155 0.605197 3.73913 0.208291 4.18396 0.167791C5.2336 0.0692397 5.88093 0.774623 6.12326 2.28529C6.38584 3.91544 6.56742 4.92862 6.66934 5.32553C6.97242 6.67824 7.30588 7.35325 7.66971 7.35325C7.95186 7.35325 8.37644 6.9145 8.94209 6.03699C9.50708 5.16015 9.81015 4.49324 9.85133 4.03424C9.93233 3.27755 9.62858 2.8982 8.94209 2.8982C8.61944 2.8982 8.28599 2.9711 7.94308 3.11555C8.60662 0.979825 9.87428 -0.0569867 11.7454 0.00241401C13.1325 0.0422395 13.7866 0.925825 13.7063 2.65452Z" fill="white"/>
</svg>
