<svg width="16" height="16" viewBox="0 0 16 16" fill="none" xmlns="http://www.w3.org/2000/svg">
<path fill-rule="evenodd" clip-rule="evenodd" d="M4.87064 0.545C5.67089 0.509 5.92589 0.5 7.96289 0.5C9.99989 0.5 10.2549 0.509 11.0551 0.545C11.8531 0.58175 12.3984 0.7085 12.8754 0.89375C13.376 1.0819 13.8296 1.37702 14.2044 1.7585C14.5859 2.13333 14.881 2.58688 15.0691 3.0875C15.2544 3.5645 15.3811 4.10975 15.4179 4.90775C15.4539 5.708 15.4629 5.963 15.4629 8C15.4629 10.037 15.4539 10.292 15.4179 11.0922C15.3811 11.8902 15.2544 12.4355 15.0691 12.9125C14.881 13.4131 14.5859 13.8667 14.2044 14.2415C13.8296 14.623 13.376 14.9181 12.8754 15.1063C12.3984 15.2915 11.8531 15.4183 11.0551 15.455C10.2549 15.4917 9.99989 15.5 7.96289 15.5C5.92589 15.5 5.67089 15.4917 4.87064 15.455C4.07264 15.4183 3.52739 15.2915 3.05039 15.1063C2.54977 14.9181 2.09622 14.623 1.72139 14.2415C1.33991 13.8667 1.0448 13.4131 0.85664 12.9125C0.67139 12.4355 0.544641 11.8902 0.507891 11.0922C0.471141 10.292 0.462891 10.037 0.462891 8C0.462891 5.963 0.471141 5.708 0.507891 4.90775C0.544641 4.10975 0.67139 3.5645 0.85664 3.0875C1.0448 2.58688 1.33991 2.13333 1.72139 1.7585C2.09622 1.37702 2.54977 1.0819 3.05039 0.89375C3.52739 0.7085 4.07264 0.58175 4.87064 0.545ZM7.96289 4.25C6.96833 4.25 6.0145 4.64509 5.31124 5.34835C4.60798 6.05161 4.21289 7.00544 4.21289 8C4.21289 8.99456 4.60798 9.94839 5.31124 10.6517C6.0145 11.3549 6.96833 11.75 7.96289 11.75C8.95745 11.75 9.91128 11.3549 10.6145 10.6517C11.3178 9.94839 11.7129 8.99456 11.7129 8C11.7129 7.00544 11.3178 6.05161 10.6145 5.34835C9.91128 4.64509 8.95745 4.25 7.96289 4.25ZM5.71289 8C5.71289 7.40326 5.94994 6.83097 6.3719 6.40901C6.79386 5.98705 7.36615 5.75 7.96289 5.75C8.55963 5.75 9.13192 5.98705 9.55388 6.40901C9.97584 6.83097 10.2129 7.40326 10.2129 8C10.2129 8.59674 9.97584 9.16903 9.55388 9.59099C9.13192 10.0129 8.55963 10.25 7.96289 10.25C7.36615 10.25 6.79386 10.0129 6.3719 9.59099C5.94994 9.16903 5.71289 8.59674 5.71289 8ZM12.4629 4.25C12.6618 4.25 12.8526 4.17098 12.9932 4.03033C13.1339 3.88968 13.2129 3.69891 13.2129 3.5C13.2129 3.30109 13.1339 3.11032 12.9932 2.96967C12.8526 2.82902 12.6618 2.75 12.4629 2.75C12.264 2.75 12.0732 2.82902 11.9326 2.96967C11.7919 3.11032 11.7129 3.30109 11.7129 3.5C11.7129 3.69891 11.7919 3.88968 11.9326 4.03033C12.0732 4.17098 12.264 4.25 12.4629 4.25Z" fill="white"/>
</svg>
