<svg width="19" height="19" viewBox="0 0 19 19" fill="none" xmlns="http://www.w3.org/2000/svg">
<path d="M0.195312 3.54377C0.195312 2.73004 0.518566 1.94963 1.09396 1.37424C1.66936 0.79884 2.44976 0.475586 3.26349 0.475586H5.51349V5.79377H0.195312V3.54377ZM0.195312 7.02104V11.9301H5.51349V7.02104H0.195312ZM0.195312 13.1574V15.4074C0.195313 16.2211 0.518566 17.0015 1.09396 17.5769C1.66936 18.1523 2.44976 18.4756 3.26349 18.4756H5.51349V13.1574H0.195312ZM6.74077 18.4756H11.6499V13.1574H6.74077V18.4756ZM12.8771 18.4756H15.1271C15.9409 18.4756 16.7213 18.1523 17.2967 17.5769C17.8721 17.0015 18.1953 16.2211 18.1953 15.4074V13.1574H12.8771V18.4756ZM18.1953 11.9301V7.02104H12.8771V11.9301H18.1953ZM18.1953 5.79377V3.54377C18.1953 2.73004 17.8721 1.94963 17.2967 1.37424C16.7213 0.79884 15.9409 0.475586 15.1271 0.475586H12.8771V5.79377H18.1953ZM11.6499 0.475586H6.74077V5.79377H11.6499V0.475586ZM11.6499 7.02104V11.9301H6.74077V7.02104H11.6499Z" fill="#004DD5"/>
</svg>
