<svg width="76" height="17" viewBox="0 0 76 17" fill="none" xmlns="http://www.w3.org/2000/svg">
<path d="M9.81822 10.12L10.6642 11.776C10.2682 12.196 9.69822 12.538 8.95422 12.802C8.22222 13.066 7.44822 13.198 6.63222 13.198C4.71222 13.198 3.14622 12.604 1.93422 11.416C0.734219 10.228 0.134219 8.656 0.134219 6.7C0.134219 4.828 0.704219 3.274 1.84422 2.038C2.97222 0.814 4.55022 0.202 6.57822 0.202C8.18622 0.202 9.46422 0.627999 10.4122 1.48L9.42222 3.118C8.57022 2.554 7.62222 2.272 6.57822 2.272C5.37822 2.272 4.39422 2.674 3.62622 3.478C2.85822 4.282 2.47422 5.356 2.47422 6.7C2.47422 8.02 2.87622 9.088 3.68022 9.904C4.49622 10.72 5.54622 11.128 6.83022 11.128C7.93422 11.128 8.93022 10.792 9.81822 10.12ZM12.4458 12.01C11.6418 11.206 11.2398 10.186 11.2398 8.95C11.2398 7.714 11.6418 6.7 12.4458 5.908C13.2498 5.104 14.3178 4.702 15.6498 4.702C16.9698 4.702 18.0318 5.104 18.8358 5.908C19.6518 6.7 20.0598 7.714 20.0598 8.95C20.0598 10.174 19.6518 11.194 18.8358 12.01C18.0198 12.802 16.9578 13.198 15.6498 13.198C14.3178 13.198 13.2498 12.802 12.4458 12.01ZM14.0838 7.294C13.6638 7.726 13.4538 8.278 13.4538 8.95C13.4538 9.622 13.6578 10.18 14.0658 10.624C14.4858 11.056 15.0138 11.272 15.6498 11.272C16.2978 11.272 16.8258 11.056 17.2338 10.624C17.6538 10.192 17.8638 9.634 17.8638 8.95C17.8638 8.278 17.6538 7.726 17.2338 7.294C16.8138 6.862 16.2858 6.646 15.6498 6.646C15.0258 6.646 14.5038 6.862 14.0838 7.294ZM23.9212 16.6H21.8512V4.9H23.9212V5.674C24.1852 5.386 24.5452 5.152 25.0012 4.972C25.4572 4.792 25.9312 4.702 26.4232 4.702C27.5392 4.702 28.4272 5.086 29.0872 5.854C29.7592 6.634 30.0952 7.624 30.0952 8.824C30.0952 10.084 29.6992 11.128 28.9072 11.956C28.1152 12.784 27.0832 13.198 25.8112 13.198C24.9952 13.198 24.3652 13.066 23.9212 12.802V16.6ZM25.7752 6.646C25.0552 6.646 24.4372 6.94 23.9212 7.528V10.804C24.4132 11.116 24.9832 11.272 25.6312 11.272C26.3152 11.272 26.8612 11.05 27.2692 10.606C27.6892 10.162 27.8992 9.586 27.8992 8.878C27.8992 8.206 27.7072 7.666 27.3232 7.258C26.9512 6.85 26.4352 6.646 25.7752 6.646ZM37.0259 4.9H39.3839L36.1979 13C35.6219 14.404 35.1059 15.352 34.6499 15.844C34.2059 16.348 33.6779 16.6 33.0659 16.6C32.4899 16.6 31.9079 16.39 31.3199 15.97L31.9859 14.404C32.2979 14.596 32.5799 14.692 32.8319 14.692C33.3239 14.692 33.7379 14.272 34.0739 13.432L34.2539 13L30.5099 4.9H32.9939L34.8839 9.328C34.9079 9.388 35.0399 9.778 35.2799 10.498C35.3519 10.054 35.4479 9.658 35.5679 9.31L37.0259 4.9ZM42.6947 13H40.6247V4.9H42.6947V5.692C43.1387 5.068 43.7567 4.756 44.5487 4.756C45.1127 4.756 45.5327 4.858 45.8087 5.062L45.0707 7.006C44.7227 6.802 44.3747 6.7 44.0267 6.7C43.4267 6.7 42.9827 6.988 42.6947 7.564V13ZM49.3639 13H47.2939V4.9H49.3639V13ZM47.0779 1.984C47.0779 1.624 47.1979 1.336 47.4379 1.12C47.6899 0.892 48.0019 0.778 48.3739 0.778C48.6979 0.778 48.9739 0.892 49.2019 1.12C49.4419 1.348 49.5619 1.636 49.5619 1.984C49.5619 2.368 49.4419 2.68 49.2019 2.92C48.9739 3.16 48.6979 3.28 48.3739 3.28C48.0019 3.28 47.6899 3.16 47.4379 2.92C47.1979 2.68 47.0779 2.368 47.0779 1.984ZM50.9181 14.098C50.9181 13.462 51.1521 12.934 51.6201 12.514C52.0881 12.082 52.7301 11.776 53.5461 11.596C53.4501 11.428 53.4021 11.242 53.4021 11.038C53.4021 10.81 53.4621 10.618 53.5821 10.462C52.9821 10.222 52.5081 9.862 52.1601 9.382C51.8241 8.89 51.6561 8.344 51.6561 7.744C51.6561 6.916 51.9741 6.202 52.6101 5.602C53.2461 5.002 54.0801 4.702 55.1121 4.702C55.8921 4.702 56.5821 4.894 57.1821 5.278L59.6301 4.738L59.7021 6.394L58.3521 6.7C58.4841 7.06 58.5501 7.408 58.5501 7.744C58.5501 8.56 58.2321 9.268 57.5961 9.868C56.9721 10.444 56.1441 10.732 55.1121 10.732H54.9681C54.9441 10.828 54.9321 10.93 54.9321 11.038C54.9321 11.194 54.9681 11.332 55.0401 11.452H55.1301C56.3901 11.452 57.4041 11.674 58.1721 12.118C58.9521 12.574 59.3421 13.234 59.3421 14.098C59.3421 14.962 58.9521 15.622 58.1721 16.078C57.4041 16.522 56.3901 16.744 55.1301 16.744C53.8341 16.744 52.8081 16.516 52.0521 16.06C51.2961 15.616 50.9181 14.962 50.9181 14.098ZM52.8441 14.098C52.8441 14.41 53.0421 14.65 53.4381 14.818C53.8461 14.998 54.4101 15.088 55.1301 15.088C56.6421 15.088 57.3981 14.758 57.3981 14.098C57.3981 13.798 57.2001 13.558 56.8041 13.378C56.4081 13.198 55.8501 13.108 55.1301 13.108C54.4221 13.108 53.8641 13.198 53.4561 13.378C53.0481 13.558 52.8441 13.798 52.8441 14.098ZM55.1121 9.058C55.5561 9.058 55.9161 8.938 56.1921 8.698C56.4801 8.458 56.6241 8.14 56.6241 7.744C56.6241 7.336 56.4861 7.006 56.2101 6.754C55.9341 6.502 55.5681 6.376 55.1121 6.376C54.6561 6.376 54.2901 6.508 54.0141 6.772C53.7381 7.024 53.6001 7.348 53.6001 7.744C53.6001 8.128 53.7381 8.446 54.0141 8.698C54.2901 8.938 54.6561 9.058 55.1121 9.058ZM63.0325 13H60.9625V0.399999H63.0325V5.638C63.6325 5.05 64.4065 4.756 65.3545 4.756C67.5745 4.756 68.6845 5.938 68.6845 8.302V13H66.6145V8.572C66.6145 7.972 66.4585 7.51 66.1465 7.186C65.8345 6.862 65.3905 6.7 64.8145 6.7C64.1185 6.7 63.5245 6.946 63.0325 7.438V13ZM70.6087 9.922V2.65H72.6787V4.9H75.2887V6.844H72.6787V9.796C72.6787 10.768 73.0027 11.254 73.6507 11.254C74.0587 11.254 74.4727 11.098 74.8927 10.786L75.5227 12.388C74.8627 12.916 74.0647 13.18 73.1287 13.18C72.2527 13.18 71.6107 12.916 71.2027 12.388C70.8067 11.848 70.6087 11.026 70.6087 9.922Z" fill="white"/>
</svg>
