<svg width="16" height="15" viewBox="0 0 16 15" fill="none" xmlns="http://www.w3.org/2000/svg">
<path fill-rule="evenodd" clip-rule="evenodd" d="M5.01908 0.0450003C5.81933 0.00900032 6.07433 0 8.11133 0C10.1483 0 10.4033 0.00900032 11.2036 0.0450003C12.0016 0.0817503 12.5468 0.2085 13.0238 0.39375C13.5245 0.581905 13.978 0.877018 14.3528 1.2585C14.7343 1.63333 15.0294 2.08688 15.2176 2.5875C15.4028 3.0645 15.5296 3.60975 15.5663 4.40775C15.6023 5.208 15.6113 5.463 15.6113 7.5C15.6113 9.537 15.6023 9.792 15.5663 10.5922C15.5296 11.3902 15.4028 11.9355 15.2176 12.4125C15.0294 12.9131 14.7343 13.3667 14.3528 13.7415C13.978 14.123 13.5245 14.4181 13.0238 14.6063C12.5468 14.7915 12.0016 14.9182 11.2036 14.955C10.4033 14.9917 10.1483 15 8.11133 15C6.07433 15 5.81933 14.9917 5.01908 14.955C4.22108 14.9182 3.67583 14.7915 3.19883 14.6063C2.6982 14.4181 2.24466 14.123 1.86983 13.7415C1.48835 13.3667 1.19323 12.9131 1.00508 12.4125C0.819828 11.9355 0.693078 11.3902 0.656328 10.5922C0.619578 9.792 0.611328 9.537 0.611328 7.5C0.611328 5.463 0.619578 5.208 0.656328 4.40775C0.693078 3.60975 0.819828 3.0645 1.00508 2.5875C1.19323 2.08688 1.48835 1.63333 1.86983 1.2585C2.24466 0.877018 2.6982 0.581905 3.19883 0.39375C3.67583 0.2085 4.22108 0.0817503 5.01908 0.0450003ZM8.11133 3.75C7.11677 3.75 6.16294 4.14509 5.45968 4.84835C4.75642 5.55161 4.36133 6.50544 4.36133 7.5C4.36133 8.49456 4.75642 9.44839 5.45968 10.1517C6.16294 10.8549 7.11677 11.25 8.11133 11.25C9.10589 11.25 10.0597 10.8549 10.763 10.1517C11.4662 9.44839 11.8613 8.49456 11.8613 7.5C11.8613 6.50544 11.4662 5.55161 10.763 4.84835C10.0597 4.14509 9.10589 3.75 8.11133 3.75ZM5.86133 7.5C5.86133 6.90326 6.09838 6.33097 6.52034 5.90901C6.94229 5.48705 7.51459 5.25 8.11133 5.25C8.70807 5.25 9.28036 5.48705 9.70232 5.90901C10.1243 6.33097 10.3613 6.90326 10.3613 7.5C10.3613 8.09674 10.1243 8.66903 9.70232 9.09099C9.28036 9.51295 8.70807 9.75 8.11133 9.75C7.51459 9.75 6.94229 9.51295 6.52034 9.09099C6.09838 8.66903 5.86133 8.09674 5.86133 7.5ZM12.6113 3.75C12.8102 3.75 13.001 3.67098 13.1417 3.53033C13.2823 3.38968 13.3613 3.19891 13.3613 3C13.3613 2.80109 13.2823 2.61032 13.1417 2.46967C13.001 2.32902 12.8102 2.25 12.6113 2.25C12.4124 2.25 12.2216 2.32902 12.081 2.46967C11.9403 2.61032 11.8613 2.80109 11.8613 3C11.8613 3.19891 11.9403 3.38968 12.081 3.53033C12.2216 3.67098 12.4124 3.75 12.6113 3.75Z" fill="#004DD5"/>
</svg>
