<svg width="33" height="36" viewBox="0 0 33 36" fill="none" xmlns="http://www.w3.org/2000/svg">
<path d="M21.6798 21.0881C22.4372 19.9507 22.8408 18.6145 22.8398 17.2481C22.8419 15.6901 22.3242 14.176 21.3687 12.9455C20.4132 11.715 19.0745 10.8384 17.5646 10.4546C16.0547 10.0707 14.4599 10.2015 13.0327 10.8263C11.6056 11.451 10.4276 12.534 9.68536 13.9038C8.94312 15.2735 8.67903 16.8517 8.93492 18.3885C9.1908 19.9253 9.95203 21.3328 11.0981 22.3881C12.2441 23.4434 13.7094 24.0863 15.2621 24.2149C16.8147 24.3435 18.3658 23.9505 19.6698 23.0981L22.8398 26.2481L24.8398 24.2481L21.6798 21.0881ZM10.8398 17.2481C10.8398 16.2591 11.1331 15.2924 11.6825 14.4702C12.2319 13.648 13.0128 13.0071 13.9264 12.6287C14.8401 12.2502 15.8454 12.1512 16.8153 12.3441C17.7852 12.5371 18.6761 13.0133 19.3754 13.7125C20.0746 14.4118 20.5508 15.3027 20.7438 16.2726C20.9367 17.2425 20.8377 18.2478 20.4592 19.1615C20.0808 20.0751 19.4399 20.856 18.6177 21.4054C17.7955 21.9548 16.8288 22.2481 15.8398 22.2481C14.5138 22.2481 13.242 21.7213 12.3043 20.7836C11.3666 19.8459 10.8398 18.5741 10.8398 17.2481Z" fill="white"/>
</svg>
