<svg width="19" height="12" viewBox="0 0 19 12" fill="none" xmlns="http://www.w3.org/2000/svg">
<path fill-rule="evenodd" clip-rule="evenodd" d="M15.7243 5.89823C15.7243 5.89823 18.065 2.56488 18.2984 1.46965C18.3759 1.07873 18.2047 0.859846 17.8017 0.859846H15.7703C15.3051 0.859846 15.1347 1.06258 14.9949 1.36062C14.9949 1.36062 13.8965 3.7215 12.5614 5.21008C12.1317 5.69065 11.9136 5.83604 11.6769 5.83604C11.4863 5.83604 11.3983 5.6745 11.3983 5.24077V1.43815C11.3983 0.906693 11.3361 0.75 10.9015 0.75H7.64654C7.39778 0.75 7.2427 0.895384 7.2427 1.09408C7.2427 1.59485 8.00193 1.70792 8.00193 3.06565V5.86673C8.00193 6.4305 7.97124 6.64938 7.70793 6.64938C7.01008 6.64938 5.35108 4.22388 4.42062 1.46965C4.23485 0.906692 4.03293 0.75 3.50551 0.75H1.47497C1.18016 0.75 0.962891 0.953538 0.962891 1.25077C0.962891 1.79838 1.59854 4.33373 4.09512 7.72846C5.76947 10.0142 7.97205 11.25 9.95574 11.25C11.1657 11.25 11.4605 11.0465 11.4605 10.5303V8.77765C11.4605 8.33908 11.6301 8.15169 11.8789 8.15169C12.1575 8.15169 12.6502 8.24215 13.8012 9.38746C15.1662 10.7032 15.259 11.25 16.0029 11.25H18.2822C18.5149 11.25 18.7321 11.1402 18.7321 10.7492C18.7321 10.2323 18.065 9.30992 17.0416 8.21388C16.6232 7.65092 15.9415 7.04031 15.7243 6.75923C15.4141 6.4305 15.507 6.24231 15.7243 5.89823Z" fill="white"/>
</svg>
