<svg width="18" height="12" viewBox="0 0 18 12" fill="none" xmlns="http://www.w3.org/2000/svg">
<path fill-rule="evenodd" clip-rule="evenodd" d="M7.25964 7.998L7.25889 3.33L11.7176 5.67225L7.25964 7.998ZM17.0479 2.52075C17.0479 2.52075 16.8866 1.37625 16.3924 0.8715C15.7646 0.21 15.0611 0.207 14.7386 0.168C12.4301 -2.23517e-08 8.96664 0 8.96664 0H8.95914C8.95914 0 5.49564 -2.23517e-08 3.18714 0.168C2.86464 0.207 2.16114 0.21 1.53339 0.8715C1.03839 1.37625 0.877891 2.5215 0.877891 2.5215C0.877891 2.5215 0.712891 3.86475 0.712891 5.2095V6.4695C0.712891 7.81425 0.877891 9.159 0.877891 9.159C0.877891 9.159 1.03914 10.3042 1.53339 10.809C2.16114 11.4705 2.98539 11.4487 3.35289 11.5185C4.67289 11.646 8.96289 11.6857 8.96289 11.6857C8.96289 11.6857 12.4301 11.6805 14.7386 11.5125C15.0611 11.4735 15.7646 11.4705 16.3924 10.8082C16.8874 10.3042 17.0479 9.159 17.0479 9.159C17.0479 9.159 17.2129 7.81425 17.2129 6.47025V5.2095C17.2129 3.86475 17.0479 2.52 17.0479 2.52V2.52075Z" fill="white"/>
</svg>
